HIERARCHY
ROOT Hips
{
  OFFSET -69.4423 88.0299 51.6846
  CHANNELS 6 Xposition Yposition Zposition Zrotation Xrotation Yrotation
  JOINT Spine
  {
    OFFSET 12.0259 -0.162853 1.93176e-005
    CHANNELS 3 Zrotation Xrotation Yrotation
    JOINT Spine1
    {
      OFFSET 15.3169 -0.0121909 0
      CHANNELS 3 Zrotation Xrotation Yrotation
      JOINT Spine2
      {
        OFFSET 15.3176 -0.0121922 0
        CHANNELS 3 Zrotation Xrotation Yrotation
        JOINT Neck
        {
          OFFSET 19.9142 1.56236 0
          CHANNELS 3 Zrotation Xrotation Yrotation
          JOINT Head
          {
            OFFSET 6.92646 0 0
            CHANNELS 3 Zrotation Xrotation Yrotation
            End Site
            {
              OFFSET 20.7666 0 0
            }
          }
          JOINT LeftShoulder
          {
            OFFSET -4.94072 -1.14703 8.14416
            CHANNELS 3 Zrotation Xrotation Yrotation
            JOINT LeftArm
            {
              OFFSET 14.108 0 -2.74767e-005
              CHANNELS 3 Zrotation Xrotation Yrotation
              JOINT LeftForeArm
              {
                OFFSET 28.5802 -0.0783412 -0.0284884
                CHANNELS 3 Zrotation Xrotation Yrotation
                JOINT LeftHand
                {
                  OFFSET 27.092 0 0
                  CHANNELS 3 Zrotation Xrotation Yrotation
                  End Site
                  {
                    OFFSET 9.55928 -0.186424 0.145352
                  }
                }
              }
            }
          }
          JOINT RightShoulder
          {
            OFFSET -7.15748 -1.33027 -6.24935
            CHANNELS 3 Zrotation Xrotation Yrotation
            JOINT RightArm
            {
              OFFSET 14.108 0 1.82997e-005
              CHANNELS 3 Zrotation Xrotation Yrotation
              JOINT RightForeArm
              {
                OFFSET 28.5802 -0.0707221 2.30684e-005
                CHANNELS 3 Zrotation Xrotation Yrotation
                JOINT RightHand
                {
                  OFFSET 27.092 0 -1.30073e-005
                  CHANNELS 3 Zrotation Xrotation Yrotation
                  End Site
                  {
                    OFFSET 9.55929 -0.186417 -0.145354
                  }
                }
              }
            }
          }
        }
      }
    }
  }
  JOINT LeftUpLeg
  {
    OFFSET 0.00499725 -0.534999 8.837
    CHANNELS 3 Zrotation Xrotation Yrotation
    JOINT LeftLeg
    {
      OFFSET 39.9035 -0.00124594 0.000252775
      CHANNELS 3 Zrotation Xrotation Yrotation
      JOINT LeftFoot
      {
        OFFSET 39.6689 0 0
        CHANNELS 3 Zrotation Xrotation Yrotation
        JOINT LeftToe
        {
          OFFSET 10.1624 13.6296 0
          CHANNELS 3 Zrotation Xrotation Yrotation
          End Site
          {
            OFFSET 8.38147 0 0
          }
        }
      }
    }
  }
  JOINT RightUpLeg
  {
    OFFSET 0.00499725 -0.535 -8.837
    CHANNELS 3 Zrotation Xrotation Yrotation
    JOINT RightLeg
    {
      OFFSET 39.9036 -0.000268477 0.000106433
      CHANNELS 3 Zrotation Xrotation Yrotation
      JOINT RightFoot
      {
        OFFSET 39.6689 1.17892e-005 0
        CHANNELS 3 Zrotation Xrotation Yrotation
        JOINT RightToe
        {
          OFFSET 10.1624 13.6296 0
          CHANNELS 3 Zrotation Xrotation Yrotation
          End Site
          {
            OFFSET 8.38147 0 0
          }
        }
      }
    }
  }
}
MOTION
Frames:	6
Frame Time:	0.0333333
68.211 88.43 -57.4023 -135.179 85.2936 -136.668 0.945396 0.329865 0.832049 1.88595 0.67388 1.65875 1.88593 0.673866 1.65874 -15.4147 -2.25791 -12.828 50.2201 -0.917628 13.2403 -167.085 -4.65397 -95.8517 -17.5659 7.91393 87.2627 -28.2463 3.45187 -17.4988 22.1795 -87.6421 24.7948 -166.796 -6.41373 72.856 -13.5829 -3.43426 -84.2356 -23.3607 -2.81334 14.4245 2.88636 82.8076 -2.70194 -16.2275 -3.55561 -175.841 -38.6887 0.882563 -0.742469 4.01197 0.319532 0.459914 90 -1.66358e-014 5.22431e-015 -7.64479 -4.22927 -172.507 -27.354 -0.671004 0.194873 7.31129 3.16568 -0.776497 90 -5.96354e-016 1.03368e-014 
67.8839 88.4756 -56.9884 -131.097 85.9631 -141.113 1.11755 0.486881 0.918891 2.22731 0.992025 1.82838 2.2273 0.992023 1.82837 -15.0609 -2.4361 -12.9982 49.6164 -1.03981 13.6314 -167.473 -4.80441 -96.05 -18.1956 7.99789 87.1026 -28.7802 3.54967 -17.7697 23.8799 -87.839 26.4034 -167.175 -6.59542 72.6945 -14.2042 -3.11193 -83.9783 -23.3646 -2.81178 14.4227 3.15362 83.3825 -2.94624 -18.3669 -3.03849 -175.453 -42.5058 0.814903 -0.636616 4.04547 0.0983325 0.415857 90 -1.27719e-014 -1.51076e-014 -6.0562 -4.45314 -171.967 -26.2039 -0.701766 0.174452 7.1354 2.57189 -0.771494 90 6.16232e-015 5.96354e-015 
67.5755 88.5618 -56.4985 -133.171 86.7052 -139.334 1.25805 0.725399 0.974291 2.50388 1.47239 1.93279 2.50387 1.47239 1.93278 -15.2487 -2.64936 -13.122 49.5205 -1.33512 14.0305 -167.348 -5.09738 -96.1469 -18.8034 8.25157 86.9739 -29.3009 3.66243 -18.0244 27.7958 -88.0722 30.3904 -167.025 -6.90146 72.6368 -15.1376 -2.55851 -83.7283 -23.3884 -2.8221 14.4466 3.77858 84.129 -3.5848 -20.3299 -2.35488 -175.009 -44.1483 0.762173 -0.60818 4.43445 1.70939 0.499872 90 -2.06239e-015 4.07509e-015 -4.67016 -4.40455 -171.522 -24.8464 -0.728478 0.168972 6.86443 2.13285 -0.757692 90 -8.05078e-015 -7.55382e-015 
67.4449 88.595 -55.943 -140.214 86.9759 -131.996 1.24601 0.924391 0.868495 2.47836 1.86782 1.71717 2.47835 1.86782 1.71717 -15.2678 -2.7748 -13.0639 49.4765 -1.40005 14.3356 -167.36 -5.25454 -96.0778 -18.5941 8.95102 86.5436 -29.4383 3.67397 -18.0612 27.0777 -88.2508 29.5247 -167.016 -7.01983 72.741 -15.756 -2.25961 -83.7967 -23.3538 -2.80497 14.4166 4.03823 84.8569 -3.857 -22.0885 -1.54106 -175.194 -43.3025 0.744612 -0.676189 4.36062 2.20819 0.534767 90 -8.02593e-015 -4.22417e-015 -3.94623 -4.54028 -171.829 -24.039 -0.742617 0.169161 6.85137 1.4717 -0.794599 90 -5.36719e-015 1.15295e-014 
67.3418 88.6537 -55.3199 -144.989 87.2688 -127.084 1.27855 1.0562 0.834594 2.54222 2.13113 1.64598 2.54222 2.13114 1.64596 -15.3786 -2.79113 -13.26 49.0536 -1.29426 14.6587 -167.296 -5.39093 -96.2652 -17.9779 9.53915 86.493 -29.4537 3.65943 -18.0332 21.9373 -87.8587 24.3121 -166.926 -7.12835 72.5855 -16.6522 -1.88381 -83.743 -23.7431 -2.89276 14.6279 4.10003 84.7919 -3.90071 -23.3309 -1.25628 -175.291 -40.7612 0.743643 -0.806446 3.50945 1.85132 0.525636 90 1.63997e-015 1.93815e-015 -2.95022 -4.22007 -171.873 -23.0168 -0.758073 0.175499 6.76995 1.46513 -0.80023 90 -4.77083e-015 5.96354e-015 
67.3037 88.6872 -54.5639 -147.236 87.3956 -124.783 1.28638 1.19743 0.788973 2.55442 2.41264 1.55156 2.55442 2.41264 1.55154 -15.3912 -2.94771 -13.2662 48.372 -1.54397 14.9104 -167.333 -5.59892 -96.2234 -17.5674 10.2423 86.2199 -29.0593 3.57819 -17.7966 19.4275 -87.5596 21.8462 -166.948 -7.29046 72.6413 -17.4696 -1.88009 -83.9596 -24.3232 -3.02096 14.9408 4.53538 85.4433 -4.38349 -24.1986 -1.43787 -175.43 -37.0706 0.740087 -0.977566 1.89771 0.644205 0.400785 90 -1.66979e-014 6.36111e-015 -1.82236 -3.95352 -171.867 -21.9063 -0.771766 0.189019 6.75451 1.42433 -0.799568 90 1.13307e-014 -3.97569e-016 
